<?xml version="1.0" encoding="UTF-8"?>
<svg width="343px" height="254px" viewBox="0 0 343 254" version="1.1" xmlns="http://www.w3.org/2000/svg" xmlns:xlink="http://www.w3.org/1999/xlink">
    <title>桌面端</title>
    <g id="桌面端" stroke="none" stroke-width="1" fill="none" fill-rule="evenodd">
        <rect fill="#FFFFFF" x="0" y="0" width="343" height="254"></rect>
        <g id="编组" transform="translate(82.000000, 15.000000)">
            <path d="M3.61764706,1 L169.571429,1 C174.778685,1 179,5.22131522 179,10.4285714 L179,10.4285714 L179,10.4285714 C179,11.8487322 177.828039,13 176.382353,13 L3.61764706,13 C2.17196051,13 1,11.8487322 1,10.4285714 L1,3.57142857 C1,2.15126779 2.17196051,1 3.61764706,1 Z" id="矩形" fill="#F1C331"></path>
            <path d="M179,10 L179,63.9642334 L178.999,63.965 L178.996638,64.1814788 C178.83104,71.8414146 172.569792,78 164.87013,78 L59.6142857,78 C58.1704556,78 57,76.8138453 57,75.3506494 L57,66.5194805 C57,65.0562846 58.1704556,63.8701299 59.6142857,63.8701299 L165.057,63.87 L165.057143,12.6493506 C165.057143,11.1861547 166.227598,10 167.671429,10 L179,10 Z" id="形状结合" fill="#F1C331"></path>
            <path d="M67.5372735,161.706485 L187.677719,162.242229 C189.324118,162.24957 190.65697,163.582422 190.664312,165.228821 L190.700055,173.244267 C190.707444,174.901105 189.370301,176.250227 187.713463,176.257615 C187.704544,176.257655 187.695626,176.257655 187.686707,176.257615 L67.5462612,175.721872 C65.8998625,175.71453 64.5670107,174.381678 64.5596689,172.735279 L64.5239255,164.719833 C64.5165372,163.062995 65.8536801,161.713874 67.5105179,161.706485 C67.5194364,161.706445 67.528355,161.706445 67.5372735,161.706485 Z" id="矩形" fill="#F1C331" transform="translate(127.611990, 168.982050) rotate(45.000000) translate(-127.611990, -168.982050) "></path>
            <rect id="矩形" fill="#000000" x="29" y="32" width="122" height="14" rx="3"></rect>
            <rect id="矩形" fill="#000000" x="57" y="97" width="89" height="14" rx="3"></rect>
            <path d="M-45,116 L117,116 C118.656854,116 120,117.343146 120,119 L120,127 C120,128.656854 118.656854,130 117,130 L-45,130 C-46.6568542,130 -48,128.656854 -48,127 L-48,119 C-48,117.343146 -46.6568542,116 -45,116 Z" id="矩形" fill="#000000" transform="translate(36.000000, 123.000000) rotate(90.000000) translate(-36.000000, -123.000000) "></path>
            <path d="M-101,105 L116,105 C117.656854,105 119,106.343146 119,108 L119,116 C119,117.656854 117.656854,119 116,119 L-97,119 C-100.865993,119 -104,115.865993 -104,112 L-104,108 C-104,106.343146 -102.656854,105 -101,105 Z" id="矩形" fill="#F1C331" transform="translate(7.500000, 112.000000) rotate(90.000000) translate(-7.500000, -112.000000) "></path>
        </g>
    </g>
</svg>